<svg width="56" height="32" viewBox="0 0 56 32" fill="none" xmlns="http://www.w3.org/2000/svg">
<rect width="56" height="32" rx="6" fill="white"/>
<path d="M37.7009 18.4183C36.3647 23.7783 30.9343 27.0365 25.5819 25.7004C20.2217 24.3643 16.9634 18.934 18.2996 13.5817C19.6357 8.22169 25.0584 4.96347 30.4186 6.29958C35.7709 7.62787 39.037 13.0582 37.7009 18.4183Z" fill="url(#paint0_linear_1_14395)"/>
<path d="M32.7607 14.754C32.9561 13.4259 31.9482 12.7071 30.5576 12.2306L31.0107 10.4259L29.917 10.1525L29.4795 11.9103C29.1904 11.84 28.8936 11.7696 28.5967 11.7071L29.0342 9.94151L27.9404 9.66808L27.4951 11.465C27.2529 11.4103 27.0186 11.3556 26.792 11.3009V11.2931L25.2764 10.9181L24.9873 12.09C24.9873 12.09 25.7998 12.2775 25.7842 12.2853C26.2295 12.3946 26.3076 12.6915 26.292 12.9259L25.7764 14.9806C25.8076 14.9884 25.8467 14.9962 25.8936 15.0196C25.8545 15.0118 25.8154 15.004 25.7764 14.9884L25.0576 17.8634C25.0029 17.9962 24.8623 18.1993 24.5576 18.1212C24.5654 18.1368 23.7607 17.9259 23.7607 17.9259L23.2139 19.1837L24.6436 19.5431C24.9092 19.6134 25.167 19.6759 25.4248 19.7462L24.9717 21.5665L26.0654 21.84L26.5186 20.0353C26.8154 20.1134 27.1123 20.1915 27.3936 20.2618L26.9482 22.0587L28.042 22.3321L28.4951 20.5118C30.3701 20.8634 31.7764 20.7228 32.3623 19.0275C32.8389 17.6681 32.3389 16.879 31.3545 16.3634C32.0811 16.1993 32.6201 15.7228 32.7607 14.754ZM30.2529 18.2696C29.917 19.629 27.6201 18.8946 26.8779 18.7071L27.4795 16.2931C28.2217 16.4806 30.6123 16.8478 30.2529 18.2696ZM30.5967 14.7306C30.2842 15.9728 28.3779 15.34 27.7607 15.1837L28.3076 12.9962C28.9248 13.1525 30.917 13.4415 30.5967 14.7306Z" fill="white"/>
<defs>
<linearGradient id="paint0_linear_1_14395" x1="27.9947" y1="5.99529" x2="27.9947" y2="25.998" gradientUnits="userSpaceOnUse">
<stop stop-color="#F9AA4B"/>
<stop offset="1" stop-color="#F7931A"/>
</linearGradient>
</defs>
</svg>
