<svg width="65" height="64" viewBox="0 0 65 64" fill="none" xmlns="http://www.w3.org/2000/svg">
<g id="healthicons:health-worker-form-outline">
<rect id="pattern" x="24.5" y="16.8887" width="25.3333" height="40.8889" rx="8" fill="#9BDDA2"/>
<g id="Group">
<path id="Vector" fill-rule="evenodd" clip-rule="evenodd" d="M17.833 12.0002C17.4794 12.0002 17.1402 12.1406 16.8902 12.3907C16.6402 12.6407 16.4997 12.9799 16.4997 13.3335V54.6668C16.4997 55.0205 16.6402 55.3596 16.8902 55.6096C17.1402 55.8597 17.4794 56.0002 17.833 56.0002H47.1663C47.52 56.0002 47.8591 55.8597 48.1091 55.6096C48.3592 55.3596 48.4997 55.0205 48.4997 54.6668V13.3335C48.4997 12.9799 48.3592 12.6407 48.1091 12.3907C47.8591 12.1406 47.52 12.0002 47.1663 12.0002H39.7223V9.3335H47.1663C48.2272 9.3335 49.2446 9.75492 49.9948 10.5051C50.7449 11.2552 51.1663 12.2726 51.1663 13.3335V54.6668C51.1663 55.7277 50.7449 56.7451 49.9948 57.4953C49.2446 58.2454 48.2272 58.6668 47.1663 58.6668H17.833C16.7721 58.6668 15.7547 58.2454 15.0046 57.4953C14.2544 56.7451 13.833 55.7277 13.833 54.6668V13.3335C13.833 12.2726 14.2544 11.2552 15.0046 10.5051C15.7547 9.75492 16.7721 9.3335 17.833 9.3335H25.277V12.0002H17.833Z" fill="white"/>
<path id="Vector_2" fill-rule="evenodd" clip-rule="evenodd" d="M23.1667 9.3335C23.1667 8.27263 23.5881 7.25521 24.3382 6.50507C25.0884 5.75492 26.1058 5.3335 27.1667 5.3335H37.8333C38.8942 5.3335 39.9116 5.75492 40.6618 6.50507C41.4119 7.25521 41.8333 8.27263 41.8333 9.3335V12.0002C41.8333 13.061 41.4119 14.0784 40.6618 14.8286C39.9116 15.5787 38.8942 16.0002 37.8333 16.0002H27.1667C26.1058 16.0002 25.0884 15.5787 24.3382 14.8286C23.5881 14.0784 23.1667 13.061 23.1667 12.0002V9.3335ZM27.1667 8.00016C26.813 8.00016 26.4739 8.14064 26.2239 8.39069C25.9738 8.64074 25.8333 8.97987 25.8333 9.3335V12.0002C25.8333 12.3538 25.9738 12.6929 26.2239 12.943C26.4739 13.193 26.813 13.3335 27.1667 13.3335H37.8333C38.187 13.3335 38.5261 13.193 38.7761 12.943C39.0262 12.6929 39.1667 12.3538 39.1667 12.0002V9.3335C39.1667 8.97987 39.0262 8.64074 38.7761 8.39069C38.5261 8.14064 38.187 8.00016 37.8333 8.00016H27.1667ZM20.5 28.0002C20.5 27.6465 20.6405 27.3074 20.8905 27.0574C21.1406 26.8073 21.4797 26.6668 21.8333 26.6668H31.1667C31.5203 26.6668 31.8594 26.8073 32.1095 27.0574C32.3595 27.3074 32.5 27.6465 32.5 28.0002C32.5 28.3538 32.3595 28.6929 32.1095 28.943C31.8594 29.193 31.5203 29.3335 31.1667 29.3335H21.8333C21.4797 29.3335 21.1406 29.193 20.8905 28.943C20.6405 28.6929 20.5 28.3538 20.5 28.0002ZM20.5 21.3335C20.5 20.9799 20.6405 20.6407 20.8905 20.3907C21.1406 20.1406 21.4797 20.0002 21.8333 20.0002H42.5C42.8536 20.0002 43.1928 20.1406 43.4428 20.3907C43.6929 20.6407 43.8333 20.9799 43.8333 21.3335C43.8333 21.6871 43.6929 22.0263 43.4428 22.2763C43.1928 22.5264 42.8536 22.6668 42.5 22.6668H21.8333C21.4797 22.6668 21.1406 22.5264 20.8905 22.2763C20.6405 22.0263 20.5 21.6871 20.5 21.3335ZM23.1667 38.6668V41.3335H25.8333V38.6668H23.1667ZM21.8333 36.0002C21.4797 36.0002 21.1406 36.1406 20.8905 36.3907C20.6405 36.6407 20.5 36.9799 20.5 37.3335V42.6668C20.5 43.0205 20.6405 43.3596 20.8905 43.6096C21.1406 43.8597 21.4797 44.0002 21.8333 44.0002H27.1667C27.5203 44.0002 27.8594 43.8597 28.1095 43.6096C28.3595 43.3596 28.5 43.0205 28.5 42.6668V37.3335C28.5 36.9799 28.3595 36.6407 28.1095 36.3907C27.8594 36.1406 27.5203 36.0002 27.1667 36.0002H21.8333ZM37.8333 38.6668C38.0133 38.6751 38.193 38.6468 38.3617 38.5836C38.5304 38.5205 38.6845 38.4238 38.8148 38.2995C38.9451 38.1751 39.0489 38.0257 39.1198 37.8601C39.1907 37.6945 39.2274 37.5163 39.2276 37.3362C39.2278 37.1561 39.1915 36.9778 39.1208 36.8121C39.0502 36.6464 38.9468 36.4968 38.8167 36.3722C38.6867 36.2476 38.5327 36.1506 38.3642 36.0871C38.1956 36.0236 38.0159 35.995 37.836 36.0028C37.493 36.0178 37.1691 36.1645 36.9315 36.4124C36.694 36.6603 36.5613 36.9903 36.5609 37.3336C36.5606 37.6769 36.6927 38.0071 36.9297 38.2554C37.1667 38.5038 37.4904 38.6511 37.8333 38.6668ZM37.8333 41.3335C38.8942 41.3335 39.9116 40.9121 40.6618 40.1619C41.4119 39.4118 41.8333 38.3944 41.8333 37.3335C41.8333 36.2726 41.4119 35.2552 40.6618 34.5051C39.9116 33.7549 38.8942 33.3335 37.8333 33.3335C36.7725 33.3335 35.7551 33.7549 35.0049 34.5051C34.2548 35.2552 33.8333 36.2726 33.8333 37.3335C33.8333 38.3944 34.2548 39.4118 35.0049 40.1619C35.7551 40.9121 36.7725 41.3335 37.8333 41.3335ZM32.5 47.0402C32.5233 47.0129 32.5478 46.9866 32.5733 46.9615C32.792 46.7482 33.2133 46.4655 33.8747 46.1842C35.208 45.6175 36.8533 45.3335 37.8333 45.3335C38.8133 45.3335 40.4587 45.6175 41.792 46.1842C42.4533 46.4642 42.8747 46.7482 43.0933 46.9615C43.1189 46.9862 43.1433 47.012 43.1667 47.0388V49.3335H32.5V47.0402ZM37.8333 42.6668C35.1627 42.6668 29.8333 44.0882 29.8333 46.9095V52.0002H45.8333V46.9095C45.8333 44.0882 40.504 42.6668 37.8333 42.6668Z" fill="white"/>
</g>
</g>
</svg>
