<svg width="65" height="64" viewBox="0 0 65 64" fill="none" xmlns="http://www.w3.org/2000/svg">
<g id="ph:circle-wavy-check-light">
<rect id="Rectangle 2" x="24.0557" y="19.5557" width="37.3333" height="37.3333" rx="18.6667" fill="#9BDDA2"/>
<path id="Vector" d="M56.6 26.05C55.625 25.025 54.625 23.975 54.225 23C53.825 22.025 53.825 20.75 53.8 19.325C53.775 17 53.725 14.325 51.95 12.55C50.175 10.775 47.5 10.725 45.175 10.7C43.75 10.675 42.4 10.65 41.5 10.275C40.6 9.9 39.475 8.875 38.45 7.9C36.8 6.3 34.9 4.5 32.5 4.5C30.1 4.5 28.2 6.3 26.55 7.9C25.525 8.875 24.475 9.875 23.5 10.275C22.525 10.675 21.25 10.675 19.825 10.7C17.5 10.725 14.825 10.775 13.05 12.55C11.275 14.325 11.225 17 11.2 19.325C11.175 20.75 11.15 22.1 10.775 23C10.4 23.9 9.375 25.025 8.4 26.05C6.8 27.7 5 29.6 5 32C5 34.4 6.8 36.3 8.4 37.95C9.375 38.975 10.375 40.025 10.775 41C11.175 41.975 11.175 43.25 11.2 44.675C11.225 47 11.275 49.675 13.05 51.45C14.825 53.225 17.5 53.275 19.825 53.3C21.25 53.325 22.6 53.35 23.5 53.725C24.4 54.1 25.525 55.125 26.55 56.1C28.2 57.7 30.1 59.5 32.5 59.5C34.9 59.5 36.8 57.7 38.45 56.1C39.475 55.125 40.525 54.125 41.5 53.725C42.475 53.325 43.75 53.325 45.175 53.3C47.5 53.275 50.175 53.225 51.95 51.45C53.725 49.675 53.775 47 53.8 44.675C53.825 43.25 53.85 41.9 54.225 41C54.6 40.1 55.625 38.975 56.6 37.95C58.2 36.3 60 34.4 60 32C60 29.6 58.2 27.7 56.6 26.05ZM54.45 35.875C53.275 37.1 52.075 38.35 51.45 39.85C50.825 41.35 50.825 42.975 50.8 44.625C50.775 46.275 50.75 48.4 49.825 49.325C48.9 50.25 46.975 50.275 45.125 50.3C43.275 50.325 41.775 50.35 40.35 50.95C38.925 51.55 37.6 52.775 36.375 53.95C35.15 55.125 33.7 56.5 32.5 56.5C31.3 56.5 29.95 55.2 28.625 53.95C27.3 52.7 26.15 51.575 24.65 50.95C23.15 50.325 21.525 50.325 19.875 50.3C18.225 50.275 16.1 50.25 15.175 49.325C14.25 48.4 14.225 46.475 14.2 44.625C14.175 42.775 14.15 41.275 13.55 39.85C12.95 38.425 11.725 37.1 10.55 35.875C9.375 34.65 8 33.2 8 32C8 30.8 9.3 29.45 10.55 28.125C11.8 26.8 12.925 25.65 13.55 24.15C14.175 22.65 14.175 21.025 14.2 19.375C14.225 17.725 14.25 15.6 15.175 14.675C16.1 13.75 18.025 13.725 19.875 13.7C21.725 13.675 23.225 13.65 24.65 13.05C26.075 12.45 27.4 11.225 28.625 10.05C29.85 8.875 31.3 7.5 32.5 7.5C33.7 7.5 35.05 8.8 36.375 10.05C37.7 11.3 38.85 12.425 40.35 13.05C41.85 13.675 43.475 13.675 45.125 13.7C46.775 13.725 48.9 13.75 49.825 14.675C50.75 15.6 50.775 17.525 50.8 19.375C50.825 21.225 50.85 22.725 51.45 24.15C52.05 25.575 53.275 26.9 54.45 28.125C55.625 29.35 57 30.8 57 32C57 33.2 55.7 34.55 54.45 35.875ZM44.575 24.975C44.7109 25.1155 44.8175 25.2816 44.8886 25.4636C44.9597 25.6457 44.9939 25.8401 44.9893 26.0355C44.9846 26.2309 44.9412 26.4234 44.8615 26.6018C44.7818 26.7803 44.6674 26.9411 44.525 27.075L29.875 41.075C29.5898 41.342 29.2156 41.4935 28.825 41.5C28.4405 41.4998 28.0718 41.347 27.8 41.075L20.475 34.075C20.1899 33.8032 20.0245 33.4292 20.0151 33.0354C20.0057 32.6415 20.1532 32.2601 20.425 31.975C20.6968 31.6899 21.0708 31.5245 21.4646 31.5151C21.8585 31.5057 22.2399 31.6532 22.525 31.925L28.825 37.925L42.475 24.925C42.6155 24.7891 42.7816 24.6825 42.9636 24.6114C43.1457 24.5403 43.3401 24.5061 43.5355 24.5107C43.7309 24.5154 43.9234 24.5588 44.1018 24.6385C44.2803 24.7182 44.4411 24.8326 44.575 24.975Z" fill="white"/>
</g>
</svg>
