<svg width="65" height="64" viewBox="0 0 65 64" fill="none" xmlns="http://www.w3.org/2000/svg">
<g id="fluent:shopping-bag-tag-20-regular">
<rect id="Rectangle 2" x="14.2773" y="20.4443" width="31.1111" height="28.4444" rx="8" fill="#9BDDA2"/>
<path id="Vector" d="M32.4998 7.99991C31.3112 7.10849 29.8979 6.56566 28.4182 6.43223C26.9386 6.29881 25.4509 6.58006 24.1221 7.24449C22.7932 7.90891 21.6757 8.93025 20.8946 10.1941C20.1135 11.4579 19.6998 12.9142 19.6998 14.3999V19.1999H16.4998C15.6511 19.1999 14.8372 19.537 14.2371 20.1372C13.6369 20.7373 13.2998 21.5512 13.2998 22.3999V47.9999C13.2998 50.546 14.3112 52.9878 16.1116 54.7881C17.9119 56.5885 20.3537 57.5999 22.8998 57.5999H37.3958L34.263 54.3999H22.8998C21.2024 54.3999 19.5746 53.7256 18.3743 52.5254C17.1741 51.3252 16.4998 49.6973 16.4998 47.9999V22.3999H35.6998V28.9663C36.2367 28.8555 36.7836 28.7997 37.3318 28.7999H38.8998V22.3999H48.4998V29.0463C49.671 29.3439 50.7686 29.9039 51.6998 30.6911V22.3999C51.6998 21.5512 51.3627 20.7373 50.7625 20.1372C50.1624 19.537 49.3485 19.1999 48.4998 19.1999H45.2998V14.3999C45.2998 12.9142 44.8861 11.4579 44.105 10.1941C43.3239 8.93025 42.2064 7.90891 40.8775 7.24449C39.5487 6.58006 38.0611 6.29881 36.5814 6.43223C35.1017 6.56566 33.6884 7.10849 32.4998 7.99991ZM22.8998 14.3999C22.8998 13.1269 23.4055 11.906 24.3057 11.0058C25.2059 10.1056 26.4268 9.59991 27.6998 9.59991C28.9728 9.59991 30.1937 10.1056 31.0939 11.0058C31.9941 11.906 32.4998 13.1269 32.4998 14.3999V19.1999H22.8998V14.3999ZM34.6342 10.4063C35.3571 9.92358 36.1975 9.64621 37.0657 9.60383C37.934 9.56144 38.7974 9.75562 39.5639 10.1656C40.3304 10.5757 40.9711 11.1861 41.4178 11.9319C41.8644 12.6776 42.1001 13.5306 42.0998 14.3999V19.1999H35.6998V14.3999C35.6998 12.9471 35.3126 11.5839 34.6342 10.4063ZM33.8822 49.4367C32.9965 48.5323 32.5003 47.317 32.4998 46.0511V36.8351C32.4994 36.2003 32.6241 35.5716 32.8667 34.985C33.1093 34.3984 33.4652 33.8653 33.9139 33.4163C34.3627 32.9673 34.8955 32.6111 35.4819 32.368C36.0684 32.125 36.697 31.9999 37.3318 31.9999H46.5254C47.815 31.9999 49.0502 32.5151 49.9558 33.4303L59.8982 43.4783C60.3495 43.934 60.7058 44.4748 60.9463 45.0693C61.1868 45.6638 61.3069 46.3001 61.2994 46.9414C61.292 47.5827 61.1572 48.2161 60.9029 48.8049C60.6487 49.3937 60.2799 49.926 59.8182 50.3711L50.3878 59.4495C49.471 60.333 48.2421 60.8183 46.969 60.7997C45.6959 60.7812 44.4817 60.2602 43.591 59.3503L33.8822 49.4367ZM38.8998 40.7999C38.8998 41.4364 39.1527 42.0469 39.6027 42.497C40.0528 42.947 40.6633 43.1999 41.2998 43.1999C41.9363 43.1999 42.5468 42.947 42.9969 42.497C43.4469 42.0469 43.6998 41.4364 43.6998 40.7999C43.6998 40.1634 43.4469 39.5529 42.9969 39.1028C42.5468 38.6528 41.9363 38.3999 41.2998 38.3999C40.6633 38.3999 40.0528 38.6528 39.6027 39.1028C39.1527 39.5529 38.8998 40.1634 38.8998 40.7999Z" fill="white"/>
</g>
</svg>
