<svg width="65" height="64" viewBox="0 0 65 64" fill="none" xmlns="http://www.w3.org/2000/svg">
<g id="fluent:wallet-credit-card-20-regular">
<rect id="Rectangle 2" x="21.833" y="31.1113" width="31.1111" height="21.7778" rx="8" fill="#9BDDA2"/>
<path id="Vector" d="M32.506 5.25418C32.8833 4.71323 33.3681 4.25584 33.93 3.91055C34.4919 3.56527 35.119 3.33949 35.7721 3.24731C36.4251 3.15513 37.0902 3.19852 37.7258 3.37479C38.3613 3.55105 38.9537 3.8564 39.466 4.27178L49.93 12.7678C50.865 13.5265 51.4807 14.6089 51.6549 15.8003C51.8292 16.9917 51.5493 18.2051 50.8708 19.1998H46.9668L48.2148 17.411C48.4471 17.0796 48.5452 16.6726 48.4894 16.2718C48.4336 15.871 48.228 15.5062 47.914 15.251L42.5252 10.8798L36.778 19.1998H32.8836L40.0324 8.85738L37.4468 6.75818C37.2761 6.61967 37.0787 6.51782 36.8669 6.45898C36.6551 6.40014 36.4334 6.38558 36.2157 6.41621C35.9981 6.44683 35.789 6.52199 35.6017 6.63698C35.4143 6.75198 35.2527 6.90435 35.1268 7.08458L26.6756 19.1966H22.7716L32.506 5.25418ZM43.6996 38.3998C43.2753 38.3998 42.8683 38.5684 42.5682 38.8684C42.2682 39.1685 42.0996 39.5754 42.0996 39.9998C42.0996 40.4241 42.2682 40.8311 42.5682 41.1312C42.8683 41.4312 43.2753 41.5998 43.6996 41.5998H46.8996C47.324 41.5998 47.7309 41.4312 48.031 41.1312C48.331 40.8311 48.4996 40.4241 48.4996 39.9998C48.4996 39.5754 48.331 39.1685 48.031 38.8684C47.7309 38.5684 47.324 38.3998 46.8996 38.3998H43.6996ZM14.8996 15.9998H21.8404L19.6004 19.1998H14.8996C14.4753 19.1998 14.0683 19.3684 13.7682 19.6684C13.4682 19.9685 13.2996 20.3754 13.2996 20.7998C13.2996 21.2241 13.4682 21.6311 13.7682 21.9312C14.0683 22.2312 14.4753 22.3998 14.8996 22.3998H48.4996C50.197 22.3998 51.8249 23.0741 53.0251 24.2743C54.2253 25.4745 54.8996 27.1024 54.8996 28.7998V47.9998C54.8996 49.6972 54.2253 51.325 53.0251 52.5253C51.8249 53.7255 50.197 54.3998 48.4996 54.3998H18.0996C15.9779 54.3998 13.943 53.5569 12.4428 52.0566C10.9425 50.5563 10.0996 48.5215 10.0996 46.3998V20.7998C10.0996 19.5267 10.6053 18.3058 11.5055 17.4057C12.4057 16.5055 13.6266 15.9998 14.8996 15.9998ZM13.2996 46.3998C13.2996 47.6728 13.8053 48.8937 14.7055 49.7939C15.6057 50.6941 16.8266 51.1998 18.0996 51.1998H48.4996C49.3483 51.1998 50.1622 50.8626 50.7624 50.2625C51.3625 49.6624 51.6996 48.8485 51.6996 47.9998V28.7998C51.6996 27.9511 51.3625 27.1372 50.7624 26.537C50.1622 25.9369 49.3483 25.5998 48.4996 25.5998H14.8996C14.3396 25.5998 13.7988 25.5038 13.2996 25.3278V46.3998Z" fill="white"/>
</g>
</svg>
