<svg width="29" height="35" viewBox="0 0 29 35" fill="none" xmlns="http://www.w3.org/2000/svg">
<path d="M12.0714 21.726C17.4035 21.726 21.726 17.4035 21.726 12.0714C21.726 6.73934 17.4035 2.41684 12.0714 2.41684C6.73931 2.41684 2.41681 6.73934 2.41681 12.0714C2.41681 17.4035 6.73931 21.726 12.0714 21.726Z" fill="#05422C" stroke="#05422C" stroke-width="1.5" stroke-linecap="round" stroke-linejoin="round"/>
<path d="M15.6844 24.0215C16.7719 25.5561 18.5481 26.559 20.5781 26.559C23.8769 26.559 26.5594 23.8765 26.5594 20.5777C26.5594 18.5719 25.5686 16.7957 24.0581 15.7082" stroke="#C3D2CC" stroke-width="1.5" stroke-linecap="round" stroke-linejoin="round"/>
<path d="M9.66681 13.7749C9.66681 14.7053 10.3918 15.4666 11.2739 15.4666H13.0864C13.8597 15.4666 14.4881 14.802 14.4881 13.9924C14.4881 13.1103 14.1014 12.7961 13.5335 12.5907L10.6335 11.5757C10.0535 11.3703 9.66681 11.0561 9.66681 10.1741C9.66681 9.36447 10.2951 8.69989 11.0685 8.69989H12.881C13.7751 8.71197 14.5001 9.46114 14.5001 10.3916" stroke="white" stroke-width="1.5" stroke-linecap="round" stroke-linejoin="round"/>
<path d="M12.0832 15.5271V16.4213" stroke="white" stroke-width="1.5" stroke-linecap="round" stroke-linejoin="round"/>
<path d="M12.0832 7.74561V8.68811" stroke="white" stroke-width="1.5" stroke-linecap="round" stroke-linejoin="round"/>
<rect x="4.14288" y="32.1071" width="20.7143" height="2.07143" rx="1.03571" fill="#F2F6F4"/>
</svg>
