<svg width="27" height="27" viewBox="0 0 27 27" fill="none" xmlns="http://www.w3.org/2000/svg">
<path d="M24.1875 17.9375C24.2109 17.9375 24.2248 17.9456 24.2333 17.9542C24.2419 17.9627 24.25 17.9766 24.25 18V19.125C24.25 20.5588 23.208 21.7428 21.8377 21.9632C21.5746 20.0828 19.9503 18.625 18 18.625C16.037 18.625 14.4042 20.1018 14.1573 22H12.8427C12.5958 20.1018 10.963 18.625 9 18.625C7.04967 18.625 5.4254 20.0827 5.16227 21.9632C3.79201 21.7428 2.75 20.5588 2.75 19.125V16.875C2.75 16.5324 3.03239 16.25 3.375 16.25H14.0625C15.8911 16.25 17.375 14.7661 17.375 12.9375V6.75C17.375 6.40739 17.6574 6.125 18 6.125H18.945C19.5719 6.125 20.1513 6.46448 20.4692 7.01083C20.4695 7.01133 20.4698 7.01182 20.4701 7.01232L21.0101 7.95739C19.353 8.13918 18.0625 9.54466 18.0625 11.25V14.625C18.0625 16.4536 19.5464 17.9375 21.375 17.9375H24.1875Z" fill="#05422C" stroke="#05422C"/>
<path d="M10.75 22.5C10.75 23.4665 9.9665 24.25 9 24.25C8.0335 24.25 7.25 23.4665 7.25 22.5C7.25 21.5335 8.0335 20.75 9 20.75C9.9665 20.75 10.75 21.5335 10.75 22.5Z" fill="#C3D2CC" stroke="#C3D2CC"/>
<path d="M19.75 22.5C19.75 23.4665 18.9665 24.25 18 24.25C17.0335 24.25 16.25 23.4665 16.25 22.5C16.25 21.5335 17.0335 20.75 18 20.75C18.9665 20.75 19.75 21.5335 19.75 22.5Z" fill="#C3D2CC" stroke="#C3D2CC"/>
<path d="M24.75 14.0962V15.75H21.375C20.7562 15.75 20.25 15.2438 20.25 14.625V11.25C20.25 10.6312 20.7562 10.125 21.375 10.125H22.8263L24.4575 12.9825C24.6487 13.32 24.75 13.7025 24.75 14.0962Z" fill="#C3D2CC"/>
<path d="M14.715 2.25H6.40125C4.3875 2.25 2.7 3.69 2.32875 5.6025H7.245C7.6725 5.6025 8.01 5.95125 8.01 6.37875C8.01 6.80625 7.6725 7.14375 7.245 7.14375H2.25V8.69625H5.175C5.6025 8.69625 5.95125 9.045 5.95125 9.4725C5.95125 9.9 5.6025 10.2375 5.175 10.2375H2.25V11.79H3.11625C3.54375 11.79 3.8925 12.1388 3.8925 12.5663C3.8925 12.9938 3.54375 13.3313 3.11625 13.3313H2.25V13.59C2.25 14.2087 2.75625 14.715 3.375 14.715H13.6687C14.8162 14.715 15.75 13.7812 15.75 12.6337V3.285C15.75 2.71125 15.2887 2.25 14.715 2.25Z" fill="#05422C"/>
<path d="M2.32875 5.60251H2.16H1.0575C0.63 5.60251 0.28125 5.95126 0.28125 6.37876C0.28125 6.80626 0.63 7.14376 1.0575 7.14376H2.08125H2.25V6.40126C2.25 6.13126 2.28375 5.86126 2.32875 5.60251Z" fill="#05422C"/>
<path d="M2.08125 8.69626H1.0575C0.63 8.69626 0.28125 9.04501 0.28125 9.47251C0.28125 9.90001 0.63 10.2375 1.0575 10.2375H2.08125H2.25V8.69626H2.08125Z" fill="#05422C"/>
<path d="M2.08125 11.79H1.0575C0.63 11.79 0.28125 12.1388 0.28125 12.5663C0.28125 12.9938 0.63 13.3313 1.0575 13.3313H2.08125H2.25V11.79H2.08125Z" fill="#05422C"/>
</svg>
