<svg xmlns="http://www.w3.org/2000/svg" width="22" height="22" viewBox="0 0 22 22" fill="none">
  <path d="M13.7502 1.83301V10.9997C13.7502 12.008 12.9252 12.833 11.9168 12.833H1.8335V6.98467C2.50266 7.78217 3.52935 8.27717 4.66602 8.24967C5.59185 8.23134 6.426 7.87384 7.04933 7.27801C7.3335 7.03968 7.57185 6.73717 7.75518 6.40717C8.08518 5.848 8.2685 5.18798 8.25016 4.50048C8.22266 3.42798 7.74601 2.48384 7.00351 1.83301H13.7502Z" stroke="#05422C" stroke-width="1.5" stroke-linecap="round" stroke-linejoin="round"/>
  <path d="M20.1668 12.833V15.583C20.1668 17.1047 18.9385 18.333 17.4168 18.333H16.5002C16.5002 17.3247 15.6752 16.4997 14.6668 16.4997C13.6585 16.4997 12.8335 17.3247 12.8335 18.333H9.16683C9.16683 17.3247 8.34183 16.4997 7.3335 16.4997C6.32516 16.4997 5.50016 17.3247 5.50016 18.333H4.5835C3.06183 18.333 1.8335 17.1047 1.8335 15.583V12.833H11.9168C12.9252 12.833 13.7502 12.008 13.7502 10.9997V4.58301H15.4369C16.0969 4.58301 16.7018 4.94052 17.0318 5.50885L18.5993 8.24967H17.4168C16.9127 8.24967 16.5002 8.66217 16.5002 9.16634V11.9163C16.5002 12.4205 16.9127 12.833 17.4168 12.833H20.1668Z" stroke="#05422C" stroke-width="1.5" stroke-linecap="round" stroke-linejoin="round"/>
  <path d="M7.33333 20.1667C8.34586 20.1667 9.16667 19.3459 9.16667 18.3333C9.16667 17.3208 8.34586 16.5 7.33333 16.5C6.32081 16.5 5.5 17.3208 5.5 18.3333C5.5 19.3459 6.32081 20.1667 7.33333 20.1667Z" stroke="#05422C" stroke-width="1.5" stroke-linecap="round" stroke-linejoin="round"/>
  <path d="M14.6668 20.1667C15.6794 20.1667 16.5002 19.3459 16.5002 18.3333C16.5002 17.3208 15.6794 16.5 14.6668 16.5C13.6543 16.5 12.8335 17.3208 12.8335 18.3333C12.8335 19.3459 13.6543 20.1667 14.6668 20.1667Z" stroke="#05422C" stroke-width="1.5" stroke-linecap="round" stroke-linejoin="round"/>
  <path d="M20.1667 11V12.8333H17.4167C16.9125 12.8333 16.5 12.4208 16.5 11.9167V9.16667C16.5 8.6625 16.9125 8.25 17.4167 8.25H18.5991L20.1667 11Z" stroke="#05422C" stroke-width="1.5" stroke-linecap="round" stroke-linejoin="round"/>
  <path d="M8.24984 4.58366C8.24984 5.68366 7.76402 6.66449 7.00318 7.33366C6.35235 7.90199 5.509 8.25033 4.58317 8.25033C2.55734 8.25033 0.916504 6.60949 0.916504 4.58366C0.916504 3.42866 1.44817 2.39283 2.2915 1.72366C2.924 1.2195 3.7215 0.916992 4.58317 0.916992C6.609 0.916992 8.24984 2.55783 8.24984 4.58366Z" stroke="#05422C" stroke-width="1.5" stroke-miterlimit="10" stroke-linecap="round" stroke-linejoin="round"/>
  <path d="M4.81234 3.4375V4.8125L3.6665 5.5" stroke="#05422C" stroke-width="1.5" stroke-miterlimit="10" stroke-linecap="round" stroke-linejoin="round"/>
</svg>