<svg xmlns="http://www.w3.org/2000/svg" width="22" height="22" viewBox="0 0 22 22" fill="none">
  <path d="M2.90576 6.81934L10.9999 11.5035L19.0391 6.84681" stroke="#05422C" stroke-width="1.5" stroke-linecap="round" stroke-linejoin="round"/>
  <path d="M11 19.8083V11.4941" stroke="#05422C" stroke-width="1.5" stroke-linecap="round" stroke-linejoin="round"/>
  <path d="M19.8092 8.40551V13.5939C19.8092 13.6397 19.8092 13.6763 19.8001 13.7222C19.1584 13.163 18.3334 12.833 17.4167 12.833C16.5551 12.833 15.7576 13.1355 15.1251 13.6397C14.2817 14.3089 13.7501 15.3447 13.7501 16.4997C13.7501 17.1872 13.9426 17.838 14.2817 18.388C14.3642 18.5347 14.4651 18.6722 14.5751 18.8005L12.8976 19.7264C11.8526 20.313 10.1476 20.313 9.10256 19.7264L4.20757 17.013C3.0984 16.3989 2.19092 14.8589 2.19092 13.5939V8.40551C2.19092 7.14051 3.0984 5.60053 4.20757 4.98636L9.10256 2.27301C10.1476 1.68634 11.8526 1.68634 12.8976 2.27301L17.7926 4.98636C18.9017 5.60053 19.8092 7.14051 19.8092 8.40551Z" stroke="#05422C" stroke-width="1.5" stroke-linecap="round" stroke-linejoin="round"/>
  <path d="M21.0833 16.4997C21.0833 17.5997 20.5975 18.5805 19.8367 19.2497C19.1858 19.818 18.3425 20.1663 17.4167 20.1663C15.3908 20.1663 13.75 18.5255 13.75 16.4997C13.75 15.3447 14.2817 14.3088 15.125 13.6397C15.7575 13.1355 16.555 12.833 17.4167 12.833C19.4425 12.833 21.0833 14.4738 21.0833 16.4997Z" stroke="#05422C" stroke-width="1.5" stroke-miterlimit="10" stroke-linecap="round" stroke-linejoin="round"/>
  <path d="M17.6458 15.3535V16.7285L16.5 17.416" stroke="#05422C" stroke-width="1.5" stroke-miterlimit="10" stroke-linecap="round" stroke-linejoin="round"/>
</svg>