<svg xmlns="http://www.w3.org/2000/svg" width="14" height="12" viewBox="0 0 14 12" fill="none"><path d="M13.4527 1.85424C13.0234 2.03899 12.5721 2.16764 12.1099 2.23702C12.326 2.19997 12.6439 1.81102 12.7705 1.65359C12.9628 1.41611 13.1093 1.14502 13.2026 0.854073C13.2026 0.832464 13.2243 0.801595 13.2026 0.78616C13.1918 0.780216 13.1795 0.777101 13.1671 0.777101C13.1547 0.777101 13.1425 0.780216 13.1316 0.78616C12.6298 1.05794 12.0956 1.26537 11.5419 1.40355C11.5226 1.40944 11.502 1.40997 11.4825 1.40508C11.4629 1.40018 11.445 1.39005 11.4307 1.37576C11.3876 1.32444 11.3412 1.27597 11.2918 1.23068C11.066 1.02831 10.8097 0.862688 10.5325 0.739857C10.1582 0.586306 9.7539 0.519806 9.35016 0.54538C8.9584 0.570121 8.57593 0.675197 8.22652 0.854073C7.88244 1.04266 7.58004 1.29886 7.33748 1.60728C7.08234 1.92473 6.89814 2.29313 6.79727 2.68771C6.71409 3.06303 6.70466 3.45095 6.76949 3.82987C6.76949 3.8947 6.76949 3.90396 6.71392 3.8947C4.51294 3.57057 2.70709 2.78958 1.23154 1.11337C1.16672 1.03929 1.13276 1.03929 1.08028 1.11337C0.4382 2.08884 0.74998 3.63231 1.55258 4.39478C1.66062 4.49665 1.77175 4.59543 1.88906 4.68804C1.52107 4.66191 1.16207 4.56219 0.833327 4.39478C0.771588 4.35465 0.737632 4.37626 0.734545 4.45034C0.725794 4.55306 0.725794 4.65632 0.734545 4.75904C0.798956 5.25128 0.992945 5.71758 1.29667 6.11026C1.6004 6.50294 2.00298 6.8079 2.46322 6.99397C2.57542 7.04203 2.69233 7.07824 2.81205 7.10201C2.47138 7.16908 2.12199 7.17951 1.77793 7.13288C1.70384 7.11745 1.67606 7.15758 1.70384 7.22858C2.15762 8.46335 3.14235 8.83995 3.86469 9.04987C3.96347 9.0653 4.06225 9.0653 4.17338 9.09C4.17338 9.09 4.17338 9.09 4.15486 9.10852C3.94186 9.49747 3.08061 9.75986 2.68548 9.89568C1.96428 10.1547 1.19533 10.2538 0.432026 10.1859C0.311636 10.1673 0.283854 10.1704 0.252985 10.1859C0.222115 10.2013 0.252985 10.2352 0.286941 10.2661C0.441287 10.368 0.595633 10.4575 0.756154 10.5439C1.23402 10.8046 1.73923 11.0116 2.26257 11.1613C4.9729 11.9084 8.02278 11.3589 10.0571 9.33695C11.6561 7.75027 12.2179 5.56164 12.2179 3.36992C12.2179 3.28657 12.3198 3.23718 12.3784 3.19396C12.783 2.87876 13.1396 2.5065 13.4373 2.08884C13.4888 2.02659 13.5152 1.94732 13.5113 1.86659C13.5113 1.82028 13.5113 1.82954 13.4527 1.85424Z" fill="#33CCFF"/></svg>